<svg xmlns="http://www.w3.org/2000/svg" xmlns:xlink="http://www.w3.org/1999/xlink" width="1000" zoomAndPan="magnify" viewBox="0 0 750 187.499995" height="250" preserveAspectRatio="xMidYMid meet" version="1.0"><defs><g/><clipPath id="1fe2207bdd"><path d="M 134.890625 20.71875 L 272.0625 20.71875 L 272.0625 146.648438 L 134.890625 146.648438 Z M 134.890625 20.71875 " clip-rule="nonzero"/></clipPath><clipPath id="c95284bd05"><path d="M 160 91 L 181.605469 91 L 181.605469 110.625 L 160 110.625 Z M 160 91 " clip-rule="nonzero"/></clipPath><clipPath id="ba92211cb3"><path d="M 161.667969 90.253906 L 182.285156 94.761719 L 178.335938 112.824219 L 157.71875 108.320312 Z M 161.667969 90.253906 " clip-rule="nonzero"/></clipPath><clipPath id="4bb3251dcf"><path d="M 160.5 95.582031 C 159.25 101.320312 168.015625 110.570312 168.015625 110.570312 C 168.015625 110.570312 179.8125 105.765625 181.097656 100.085938 C 181.738281 97.148438 179.867188 94.230469 176.933594 93.589844 C 174.675781 93.097656 172.414062 94.117188 171.214844 95.933594 C 170.882812 93.78125 169.257812 91.910156 166.996094 91.417969 C 164.0625 90.777344 161.148438 92.644531 160.5 95.582031 " clip-rule="nonzero"/></clipPath><clipPath id="a2ce202511"><path d="M 143.007812 22.433594 L 264.722656 22.433594 L 264.722656 143.40625 L 143.007812 143.40625 Z M 143.007812 22.433594 " clip-rule="nonzero"/></clipPath></defs><g clip-path="url(#1fe2207bdd)"><path fill="#000000" d="M -17.558594 -96.410156 L 425.027344 -96.410156 L 425.027344 346.179688 L -17.558594 346.179688 Z M -17.558594 -96.410156 " fill-opacity="0" fill-rule="nonzero"/><path fill="#000000" d="M -17.558594 -96.410156 L 425.027344 -96.410156 L 425.027344 346.179688 L -17.558594 346.179688 Z M -17.558594 -96.410156 " fill-opacity="0" fill-rule="nonzero"/></g><g clip-path="url(#c95284bd05)"><g clip-path="url(#ba92211cb3)"><g clip-path="url(#4bb3251dcf)"><path fill="#d67f2e" d="M 161.667969 90.253906 L 182.242188 94.75 L 178.296875 112.816406 L 157.71875 108.320312 Z M 161.667969 90.253906 " fill-opacity="1" fill-rule="nonzero"/></g></g></g><path fill="#ffffff" d="M 240.320312 139.191406 C 230.226562 141 217.527344 142.074219 203.734375 142.074219 C 170.847656 142.074219 144.1875 135.960938 144.1875 128.421875 C 144.1875 123.664062 154.808594 119.476562 170.910156 117.03125 C 176.84375 123.9375 187.523438 130.363281 205.957031 130.363281 C 220.785156 130.363281 230.074219 124.679688 235.847656 116.925781 C 252.347656 119.351562 263.28125 123.59375 263.28125 128.421875 C 263.28125 132.800781 254.292969 136.695312 240.320312 139.191406 Z M 240.320312 139.191406 " fill-opacity="1" fill-rule="nonzero"/><g clip-path="url(#a2ce202511)"><path fill="#ffffff" d="M 256.308594 120.695312 C 251.78125 118.820312 245.382812 117.203125 237.734375 116 C 239.816406 112.875 241.53125 109.289062 242.839844 105.285156 C 244.296875 100.832031 245.265625 95.855469 245.714844 90.496094 C 246.484375 81.390625 245.503906 74.417969 245.460938 74.128906 C 245.382812 73.578125 244.871094 73.191406 244.320312 73.273438 C 243.765625 73.351562 243.382812 73.863281 243.464844 74.414062 C 243.476562 74.484375 244.449219 81.449219 243.707031 90.328125 C 243.023438 98.480469 240.699219 109.929688 233.527344 118.199219 C 227.117188 125.605469 217.84375 129.351562 205.957031 129.351562 C 182.847656 129.351562 172.808594 119.121094 168.65625 112.1875 C 168.632812 112.148438 168.617188 112.109375 168.59375 112.074219 C 169.980469 111.675781 171.542969 111.046875 173.003906 110.269531 C 174.976562 109.222656 177.71875 107.417969 179.574219 104.753906 C 181.429688 102.082031 181.980469 99.179688 181.21875 96.125 C 180.582031 93.578125 179.085938 91.980469 177.113281 91.746094 C 175.359375 91.539062 173.53125 92.441406 172.03125 94.179688 C 171.402344 92.125 170.039062 90.546875 168.257812 89.949219 C 166.015625 89.203125 163.605469 90.195312 161.816406 92.617188 C 158.164062 97.554688 162.324219 105.339844 165.335938 110.496094 C 163.800781 110.421875 162.136719 109.855469 160.460938 108.828125 C 153.253906 104.433594 145.402344 93.699219 145.203125 84.730469 C 145.140625 81.847656 145.546875 79.003906 146.347656 76.722656 C 147.285156 74.058594 148.714844 72.175781 150.589844 71.128906 C 152.273438 70.191406 154.339844 69.933594 156.730469 70.363281 C 159.554688 70.875 162.84375 72.339844 166.511719 74.714844 C 170.097656 77.042969 174.683594 78.886719 180.136719 80.195312 C 185.144531 81.402344 190.738281 82.132812 196.765625 82.363281 C 198.148438 82.414062 199.53125 82.441406 200.921875 82.441406 C 211.085938 82.441406 221.28125 81.035156 229.421875 78.476562 C 235.203125 76.652344 242.535156 73.40625 244.621094 68.273438 C 245.113281 67.066406 245.3125 65.25 243.476562 63.449219 C 241.355469 61.359375 236.84375 59.691406 230.074219 58.5 C 224.160156 57.457031 216.761719 56.8125 208.675781 56.652344 C 205.539062 56.585938 202.359375 56.597656 199.234375 56.679688 C 199.996094 54.730469 201.789062 53.433594 204.019531 51.824219 C 206.710938 49.875 210.058594 47.460938 212.441406 43.027344 C 214.300781 39.558594 214.945312 35.910156 214.304688 32.480469 C 213.71875 29.355469 212.101562 26.625 209.742188 24.789062 C 207.71875 23.210938 205.347656 22.4375 202.886719 22.542969 C 200.230469 22.660156 197.617188 23.824219 195.335938 25.914062 C 193.28125 27.796875 192.175781 30.078125 192.140625 32.511719 C 192.113281 34.582031 192.867188 36.664062 194.265625 38.375 C 196.742188 41.410156 200.34375 42.304688 202.824219 40.496094 C 203.273438 40.171875 203.378906 39.539062 203.046875 39.085938 C 202.71875 38.636719 202.085938 38.539062 201.636719 38.863281 C 199.839844 40.171875 197.351562 38.964844 195.828125 37.097656 C 193.910156 34.75 192.988281 30.800781 196.699219 27.402344 C 201.144531 23.339844 205.710938 24.210938 208.503906 26.382812 C 212.09375 29.179688 214.304688 35.285156 210.65625 42.074219 C 208.5 46.089844 205.488281 48.265625 202.835938 50.1875 C 200.300781 52.019531 197.875 53.773438 197.085938 56.75 C 193.285156 56.890625 189.597656 57.140625 186.210938 57.492188 C 178.921875 58.242188 173.238281 59.421875 169.765625 60.902344 C 166.851562 62.144531 165.386719 63.65625 165.40625 65.410156 C 165.425781 67.003906 166.511719 68.410156 168.625 69.597656 C 171.417969 71.164062 176.058594 72.410156 182.410156 73.292969 C 188.058594 74.074219 194.742188 74.527344 201.738281 74.589844 C 212.925781 74.699219 227.828125 73.722656 233.015625 70.628906 C 234.40625 69.804688 235.097656 68.824219 235.082031 67.714844 C 235.066406 66.769531 234.714844 65.96875 234.035156 65.34375 C 231.710938 63.203125 225.796875 63.59375 218.949219 64.050781 C 214.097656 64.375 209.078125 64.707031 205.183594 64.144531 C 199.820312 63.375 199.015625 61.203125 198.875 59.632812 C 198.847656 59.3125 198.835938 59.003906 198.84375 58.707031 C 202.023438 58.617188 205.308594 58.601562 208.636719 58.667969 C 216.621094 58.835938 223.910156 59.460938 229.730469 60.488281 C 237.648438 61.886719 240.804688 63.652344 242.0625 64.886719 C 242.929688 65.742188 243.144531 66.554688 242.753906 67.515625 C 241.355469 70.953125 236.40625 74.160156 228.816406 76.546875 C 219.777344 79.394531 208.125 80.777344 196.847656 80.34375 C 184.554688 79.871094 174.175781 77.269531 167.613281 73.019531 C 160.074219 68.132812 154.015625 66.902344 149.609375 69.367188 C 147.289062 70.65625 145.550781 72.90625 144.445312 76.050781 C 143.316406 79.261719 143.140625 82.566406 143.191406 84.777344 C 143.320312 90.734375 146.242188 96.257812 148.671875 99.847656 C 151.710938 104.34375 155.625 108.242188 159.414062 110.554688 C 161.832031 112.027344 164.277344 112.695312 166.503906 112.488281 C 167.144531 113.628906 167.933594 114.875 168.914062 116.160156 C 161.535156 117.375 155.355469 118.972656 150.984375 120.8125 C 145.703125 123.03125 143.023438 125.589844 143.023438 128.421875 C 143.023438 130.722656 144.808594 132.855469 148.316406 134.757812 C 151.40625 136.433594 155.800781 137.933594 161.375 139.207031 C 172.703125 141.804688 187.75 143.238281 203.738281 143.238281 C 219.726562 143.238281 234.773438 141.804688 246.101562 139.207031 C 251.675781 137.933594 256.070312 136.433594 259.160156 134.757812 C 262.671875 132.855469 264.453125 130.722656 264.453125 128.421875 C 264.449219 125.535156 261.707031 122.9375 256.308594 120.695312 Z M 199.488281 64.308594 C 200.800781 65.207031 202.566406 65.8125 204.890625 66.144531 C 208.996094 66.738281 214.121094 66.394531 219.078125 66.070312 C 222.292969 65.855469 225.328125 65.65625 227.808594 65.730469 C 230.324219 65.8125 231.957031 66.179688 232.664062 66.828125 C 232.929688 67.074219 233.050781 67.359375 233.054688 67.746094 C 233.0625 68.066406 232.671875 68.484375 231.984375 68.898438 C 228.066406 71.230469 215.917969 72.707031 201.75 72.574219 C 186.886719 72.433594 174.570312 70.621094 169.609375 67.839844 C 168.621094 67.285156 167.4375 66.40625 167.425781 65.390625 C 167.417969 64.570312 168.558594 63.613281 170.550781 62.765625 C 175.457031 60.675781 185.324219 59.226562 196.820312 58.777344 C 196.816406 59.113281 196.832031 59.457031 196.859375 59.820312 C 197.03125 61.710938 197.914062 63.222656 199.488281 64.308594 Z M 163.441406 93.820312 C 164.445312 92.457031 165.621094 91.726562 166.761719 91.726562 C 167.050781 91.726562 167.335938 91.773438 167.617188 91.867188 C 169.277344 92.421875 170.421875 94.492188 170.398438 96.902344 C 170.390625 97.367188 170.710938 97.777344 171.164062 97.886719 C 171.617188 98.003906 172.085938 97.792969 172.304688 97.378906 C 173.546875 94.992188 175.34375 93.570312 176.875 93.75 C 177.980469 93.882812 178.832031 94.898438 179.257812 96.613281 C 179.871094 99.078125 179.421875 101.429688 177.914062 103.601562 C 175.347656 107.285156 170.394531 109.550781 167.53125 110.257812 C 164.773438 105.566406 160.386719 97.949219 163.441406 93.820312 Z M 258.042969 132.707031 C 255.140625 134.28125 250.945312 135.707031 245.578125 136.9375 C 234.410156 139.496094 219.554688 140.902344 203.734375 140.902344 C 187.914062 140.902344 173.050781 139.496094 161.890625 136.9375 C 156.523438 135.703125 152.332031 134.28125 149.425781 132.707031 C 146.761719 131.265625 145.355469 129.785156 145.355469 128.421875 C 145.355469 126.675781 147.675781 124.734375 151.882812 122.96875 C 156.355469 121.09375 162.839844 119.464844 170.644531 118.253906 C 176.429688 124.683594 187.007812 131.375 205.957031 131.375 C 218.453125 131.375 228.242188 127.386719 235.054688 119.527344 C 235.449219 119.074219 235.828125 118.609375 236.203125 118.128906 C 244.191406 119.320312 250.828125 120.953125 255.410156 122.851562 C 259.734375 124.648438 262.113281 126.625 262.113281 128.421875 C 262.113281 129.785156 260.703125 131.265625 258.042969 132.707031 Z M 258.042969 132.707031 " fill-opacity="1" fill-rule="nonzero"/></g><g fill="#ffffff" fill-opacity="1"><g transform="translate(274.827177, 77.410669)"><g><path d="M 21.796875 -44.5 C 29.023438 -44.5 34.539062 -42.628906 38.34375 -38.890625 C 42.144531 -35.160156 44.046875 -29.613281 44.046875 -22.25 C 44.046875 -14.90625 42.144531 -9.359375 38.34375 -5.609375 C 34.539062 -1.867188 29.023438 0 21.796875 0 L 5.78125 0 L 5.78125 -44.5 Z M 21.28125 -7.390625 C 25.863281 -7.390625 29.289062 -8.5625 31.5625 -10.90625 C 33.84375 -13.25 34.984375 -17.03125 34.984375 -22.25 C 34.984375 -27.46875 33.84375 -31.25 31.5625 -33.59375 C 29.289062 -35.9375 25.863281 -37.109375 21.28125 -37.109375 L 14.578125 -37.109375 L 14.578125 -7.390625 Z M 21.28125 -7.390625 "/></g></g><g transform="translate(322.409747, 77.410669)"><g><path d="M 14.578125 -19.546875 L 14.578125 -7.359375 L 35.828125 -7.359375 L 35.828125 0 L 5.78125 0 L 5.78125 -44.5 L 35.34375 -44.5 L 35.34375 -37.140625 L 14.578125 -37.140625 L 14.578125 -26.734375 L 32.71875 -26.734375 L 32.71875 -19.546875 Z M 14.578125 -19.546875 "/></g></g><g transform="translate(360.676727, 77.410669)"><g><path d="M 14.578125 -44.5 L 14.578125 -7.359375 L 34.578125 -7.359375 L 34.578125 0 L 5.78125 0 L 5.78125 -44.5 Z M 14.578125 -44.5 "/></g></g><g transform="translate(396.721361, 77.410669)"><g><path d="M 14.578125 0 L 5.78125 0 L 5.78125 -44.5 L 14.578125 -44.5 Z M 14.578125 0 "/></g></g><g transform="translate(417.118241, 77.410669)"><g><path d="M 24.328125 0.640625 C 20.222656 0.640625 16.609375 -0.207031 13.484375 -1.90625 C 10.359375 -3.613281 7.910156 -6.175781 6.140625 -9.59375 C 4.378906 -13.019531 3.5 -17.238281 3.5 -22.25 C 3.5 -27.257812 4.378906 -31.472656 6.140625 -34.890625 C 7.910156 -38.316406 10.359375 -40.878906 13.484375 -42.578125 C 16.609375 -44.285156 20.222656 -45.140625 24.328125 -45.140625 C 28.609375 -45.140625 32.242188 -44.300781 35.234375 -42.625 C 38.222656 -40.957031 40.359375 -38.410156 41.640625 -34.984375 L 35.21875 -31.046875 L 34.453125 -31.078125 C 33.503906 -33.390625 32.210938 -35.046875 30.578125 -36.046875 C 28.941406 -37.054688 26.859375 -37.5625 24.328125 -37.5625 C 20.628906 -37.5625 17.742188 -36.335938 15.671875 -33.890625 C 13.609375 -31.453125 12.578125 -27.570312 12.578125 -22.25 C 12.578125 -16.957031 13.609375 -13.085938 15.671875 -10.640625 C 17.742188 -8.191406 20.628906 -6.96875 24.328125 -6.96875 C 30.109375 -6.96875 33.648438 -9.78125 34.953125 -15.40625 L 35.703125 -15.40625 L 42.1875 -12.03125 C 40.96875 -7.800781 38.882812 -4.628906 35.9375 -2.515625 C 33 -0.410156 29.128906 0.640625 24.328125 0.640625 Z M 24.328125 0.640625 "/></g></g><g transform="translate(460.773651, 77.410669)"><g><path d="M 14.578125 0 L 5.78125 0 L 5.78125 -44.5 L 14.578125 -44.5 Z M 14.578125 0 "/></g></g><g transform="translate(481.17053, 77.410669)"><g><path d="M 24.265625 0.640625 C 20.179688 0.640625 16.582031 -0.191406 13.46875 -1.859375 C 10.351562 -3.523438 7.910156 -6.066406 6.140625 -9.484375 C 4.378906 -12.898438 3.5 -17.15625 3.5 -22.25 C 3.5 -27.34375 4.378906 -31.597656 6.140625 -35.015625 C 7.910156 -38.441406 10.351562 -40.984375 13.46875 -42.640625 C 16.582031 -44.304688 20.179688 -45.140625 24.265625 -45.140625 C 28.335938 -45.140625 31.925781 -44.3125 35.03125 -42.65625 C 38.144531 -41.007812 40.578125 -38.46875 42.328125 -35.03125 C 44.085938 -31.601562 44.96875 -27.34375 44.96875 -22.25 C 44.96875 -17.15625 44.085938 -12.894531 42.328125 -9.46875 C 40.578125 -6.039062 38.144531 -3.5 35.03125 -1.84375 C 31.925781 -0.1875 28.335938 0.640625 24.265625 0.640625 Z M 24.265625 -7 C 28.035156 -7 30.914062 -8.210938 32.90625 -10.640625 C 34.894531 -13.066406 35.890625 -16.9375 35.890625 -22.25 C 35.890625 -27.570312 34.894531 -31.445312 32.90625 -33.875 C 30.914062 -36.3125 28.035156 -37.53125 24.265625 -37.53125 C 20.460938 -37.53125 17.5625 -36.3125 15.5625 -33.875 C 13.570312 -31.445312 12.578125 -27.570312 12.578125 -22.25 C 12.578125 -16.9375 13.570312 -13.066406 15.5625 -10.640625 C 17.5625 -8.210938 20.460938 -7 24.265625 -7 Z M 24.265625 -7 "/></g></g><g transform="translate(529.666393, 77.410669)"><g><path d="M 23.59375 0.640625 C 17.46875 0.640625 12.921875 -0.8125 9.953125 -3.71875 C 6.992188 -6.632812 5.515625 -10.957031 5.515625 -16.6875 L 5.515625 -44.5 L 14.125 -44.5 L 14.125 -16.75 C 14.125 -13.5 14.90625 -11.0625 16.46875 -9.4375 C 18.03125 -7.8125 20.40625 -7 23.59375 -7 C 29.90625 -7 33.0625 -10.25 33.0625 -16.75 L 33.0625 -44.5 L 41.671875 -44.5 L 41.671875 -16.6875 C 41.671875 -10.957031 40.1875 -6.632812 37.21875 -3.71875 C 34.257812 -0.8125 29.71875 0.640625 23.59375 0.640625 Z M 23.59375 0.640625 "/></g></g><g transform="translate(576.853203, 77.410669)"><g><path d="M 19.71875 0.640625 C 16.632812 0.640625 13.890625 0.257812 11.484375 -0.5 C 9.085938 -1.257812 7.085938 -2.257812 5.484375 -3.5 C 3.878906 -4.738281 2.648438 -6.097656 1.796875 -7.578125 L 6.640625 -13.484375 L 7.390625 -13.484375 C 8.734375 -11.492188 10.4375 -9.910156 12.5 -8.734375 C 14.5625 -7.554688 16.96875 -6.96875 19.71875 -6.96875 C 22.070312 -6.96875 23.847656 -7.460938 25.046875 -8.453125 C 26.242188 -9.453125 26.84375 -10.828125 26.84375 -12.578125 C 26.84375 -13.628906 26.648438 -14.507812 26.265625 -15.21875 C 25.878906 -15.925781 25.238281 -16.535156 24.34375 -17.046875 C 23.457031 -17.554688 22.253906 -17.992188 20.734375 -18.359375 L 15 -19.671875 C 11.007812 -20.578125 8.035156 -22.085938 6.078125 -24.203125 C 4.117188 -26.328125 3.140625 -29.085938 3.140625 -32.484375 C 3.140625 -34.992188 3.765625 -37.203125 5.015625 -39.109375 C 6.273438 -41.023438 8.109375 -42.507812 10.515625 -43.5625 C 12.921875 -44.613281 15.796875 -45.140625 19.140625 -45.140625 C 22.578125 -45.140625 25.515625 -44.6875 27.953125 -43.78125 C 30.398438 -42.882812 32.46875 -41.503906 34.15625 -39.640625 L 29.796875 -33.671875 L 29.046875 -33.671875 C 27.785156 -34.984375 26.34375 -35.96875 24.71875 -36.625 C 23.09375 -37.289062 21.234375 -37.625 19.140625 -37.625 C 16.734375 -37.625 14.898438 -37.195312 13.640625 -36.34375 C 12.378906 -35.488281 11.75 -34.3125 11.75 -32.8125 C 11.75 -31.414062 12.191406 -30.300781 13.078125 -29.46875 C 13.960938 -28.632812 15.488281 -27.984375 17.65625 -27.515625 L 23.5 -26.296875 C 27.820312 -25.390625 30.957031 -23.84375 32.90625 -21.65625 C 34.851562 -19.476562 35.828125 -16.632812 35.828125 -13.125 C 35.828125 -10.34375 35.226562 -7.921875 34.03125 -5.859375 C 32.832031 -3.796875 31.023438 -2.195312 28.609375 -1.0625 C 26.203125 0.0703125 23.238281 0.640625 19.71875 0.640625 Z M 19.71875 0.640625 "/></g></g></g><g fill="#d67f2e" fill-opacity="1"><g transform="translate(327.952109, 142.524816)"><g><path d="M 63.203125 -53.359375 C 65.765625 -51.691406 67.625 -49.609375 68.78125 -47.109375 C 69.945312 -44.609375 70.320312 -41.960938 69.90625 -39.171875 C 69.34375 -35.773438 68.101562 -32.734375 66.1875 -30.046875 C 64.28125 -27.398438 62.09375 -25.023438 59.625 -22.921875 C 57.582031 -21.171875 55.457031 -19.535156 53.25 -18.015625 C 51.050781 -16.503906 48.789062 -15.070312 46.46875 -13.71875 C 43.457031 -11.945312 40.394531 -10.210938 37.28125 -8.515625 C 35.925781 -7.765625 34.570312 -7.019531 33.21875 -6.28125 C 33.15625 -6.21875 33.085938 -6.164062 33.015625 -6.125 C 32.828125 -6.007812 32.644531 -5.929688 32.46875 -5.890625 C 31.6875 -5.617188 31.148438 -5.234375 30.859375 -4.734375 C 30.578125 -4.242188 30.425781 -3.675781 30.40625 -3.03125 C 30.394531 -2.382812 30.425781 -1.710938 30.5 -1.015625 C 30.53125 -0.671875 30.71875 -0.4375 31.0625 -0.3125 C 31.4375 -0.175781 31.820312 -0.0664062 32.21875 0.015625 C 33.96875 0.390625 35.71875 0.75 37.46875 1.09375 C 40.394531 1.707031 43.332031 2.316406 46.28125 2.921875 C 49.519531 3.578125 52.757812 4.253906 56 4.953125 C 57.96875 5.378906 59.945312 5.804688 61.9375 6.234375 C 62.488281 6.359375 63.03125 6.460938 63.5625 6.546875 C 64.175781 6.679688 64.785156 6.816406 65.390625 6.953125 C 65.847656 7.023438 66.300781 7.15625 66.75 7.34375 C 66.882812 7.414062 67 7.515625 67.09375 7.640625 C 67.1875 7.765625 67.21875 7.914062 67.1875 8.09375 C 67.164062 8.257812 67.109375 8.359375 67.015625 8.390625 C 66.921875 8.429688 66.820312 8.453125 66.71875 8.453125 C 66.34375 8.472656 65.957031 8.445312 65.5625 8.375 C 63.894531 8.09375 62.222656 7.816406 60.546875 7.546875 C 57.753906 7.109375 54.960938 6.601562 52.171875 6.03125 C 47.679688 5.070312 43.191406 4.128906 38.703125 3.203125 C 37.753906 3.015625 36.789062 2.816406 35.8125 2.609375 C 34.375 2.285156 32.910156 2.007812 31.421875 1.78125 C 30.785156 1.644531 30.46875 1.921875 30.46875 2.609375 C 30.445312 3.078125 30.4375 3.539062 30.4375 4 C 30.4375 4.238281 30.4375 4.472656 30.4375 4.703125 C 30.351562 12.460938 30.273438 20.226562 30.203125 28 C 30.203125 28.09375 30.203125 28.191406 30.203125 28.296875 C 30.203125 28.585938 30.179688 28.878906 30.140625 29.171875 C 30.097656 29.890625 29.703125 30.195312 28.953125 30.09375 C 28.191406 29.976562 27.769531 29.578125 27.6875 28.890625 C 27.632812 28.546875 27.617188 28.203125 27.640625 27.859375 C 27.640625 27.796875 27.640625 27.753906 27.640625 27.734375 C 27.617188 23.640625 27.578125 19.613281 27.515625 15.65625 C 27.472656 11.65625 27.453125 7.582031 27.453125 3.4375 C 27.453125 3.257812 27.453125 3.0625 27.453125 2.84375 C 27.421875 2.488281 27.421875 2.144531 27.453125 1.8125 C 27.472656 1.195312 27.191406 0.753906 26.609375 0.484375 C 26.546875 0.460938 26.484375 0.441406 26.421875 0.421875 C 25.960938 0.222656 25.519531 -0.00390625 25.09375 -0.265625 C 23.851562 -1.085938 23.5625 -2.085938 24.21875 -3.265625 C 24.71875 -4.078125 25.382812 -4.722656 26.21875 -5.203125 C 26.707031 -5.460938 27.039062 -5.804688 27.21875 -6.234375 C 27.394531 -6.660156 27.484375 -7.175781 27.484375 -7.78125 C 27.460938 -14.53125 27.460938 -21.28125 27.484375 -28.03125 C 27.484375 -29.664062 27.484375 -31.3125 27.484375 -32.96875 C 27.484375 -33.039062 27.484375 -33.128906 27.484375 -33.234375 C 27.484375 -33.847656 27.492188 -34.445312 27.515625 -35.03125 C 27.597656 -35.78125 28.09375 -36.085938 29 -35.953125 C 29.875 -35.847656 30.320312 -35.394531 30.34375 -34.59375 C 30.34375 -34.113281 30.34375 -33.648438 30.34375 -33.203125 C 30.34375 -33.046875 30.34375 -32.890625 30.34375 -32.734375 C 30.375 -29.035156 30.390625 -25.351562 30.390625 -21.6875 C 30.390625 -18.050781 30.40625 -14.410156 30.4375 -10.765625 C 30.4375 -10.742188 30.4375 -10.722656 30.4375 -10.703125 C 30.4375 -10.085938 30.445312 -9.488281 30.46875 -8.90625 C 30.519531 -8.320312 30.828125 -8.132812 31.390625 -8.34375 C 31.578125 -8.425781 31.757812 -8.523438 31.9375 -8.640625 C 31.96875 -8.640625 31.984375 -8.640625 31.984375 -8.640625 C 35.273438 -10.390625 38.53125 -12.203125 41.75 -14.078125 C 44.976562 -15.960938 48.125 -17.976562 51.1875 -20.125 C 53.28125 -21.59375 55.285156 -23.171875 57.203125 -24.859375 C 59.117188 -26.546875 60.851562 -28.421875 62.40625 -30.484375 C 64.101562 -32.691406 65.34375 -35.164062 66.125 -37.90625 C 66.625 -39.707031 66.753906 -41.601562 66.515625 -43.59375 C 66.085938 -46.625 64.671875 -49.191406 62.265625 -51.296875 C 61.117188 -52.265625 59.878906 -53.046875 58.546875 -53.640625 C 53.679688 -55.921875 48.8125 -57.085938 43.9375 -57.140625 C 39.070312 -57.203125 34.390625 -56.414062 29.890625 -54.78125 C 25.390625 -53.144531 21.265625 -50.921875 17.515625 -48.109375 C 13.773438 -45.296875 10.582031 -42.144531 7.9375 -38.65625 C 6.894531 -37.457031 5.988281 -36.160156 5.21875 -34.765625 C 4.6875 -33.878906 4.210938 -32.972656 3.796875 -32.046875 C 3.390625 -31.117188 3.117188 -30.109375 2.984375 -29.015625 C 2.960938 -28.753906 2.863281 -28.566406 2.6875 -28.453125 C 2.507812 -28.347656 2.300781 -28.316406 2.0625 -28.359375 C 1.75 -28.359375 1.445312 -28.40625 1.15625 -28.5 C 0.539062 -28.71875 0.222656 -29.144531 0.203125 -29.78125 C 0.171875 -30.625 0.316406 -31.429688 0.640625 -32.203125 C 1.671875 -35.078125 3.171875 -37.644531 5.140625 -39.90625 C 8.171875 -43.445312 11.742188 -46.644531 15.859375 -49.5 C 19.972656 -52.351562 24.4375 -54.609375 29.25 -56.265625 C 34.070312 -57.929688 39.054688 -58.742188 44.203125 -58.703125 C 49.359375 -58.671875 54.484375 -57.550781 59.578125 -55.34375 C 60.835938 -54.789062 62.046875 -54.128906 63.203125 -53.359375 Z M 63.203125 -53.359375 "/></g></g><g transform="translate(384.28426, 142.524816)"><g><path d="M 17.453125 -8.75 C 17.710938 -8.90625 17.96875 -9.023438 18.21875 -9.109375 C 18.476562 -9.191406 18.644531 -9.179688 18.71875 -9.078125 C 18.800781 -8.984375 18.695312 -8.769531 18.40625 -8.4375 C 17.5 -7.394531 16.414062 -6.441406 15.15625 -5.578125 C 13.894531 -4.722656 12.601562 -4 11.28125 -3.40625 C 10.238281 -2.9375 9.140625 -2.5625 7.984375 -2.28125 C 6.835938 -2 5.695312 -1.9375 4.5625 -2.09375 C 3.4375 -2.25 2.410156 -2.753906 1.484375 -3.609375 C 0.0664062 -4.910156 -0.515625 -6.5 -0.265625 -8.375 C -0.0664062 -9.875 0.507812 -11.144531 1.46875 -12.1875 C 2.4375 -13.238281 3.648438 -13.953125 5.109375 -14.328125 C 6.328125 -14.585938 7.546875 -14.613281 8.765625 -14.40625 C 9.316406 -14.320312 9.820312 -14.132812 10.28125 -13.84375 C 10.707031 -13.519531 10.941406 -13.140625 10.984375 -12.703125 C 11.023438 -12.273438 10.859375 -11.859375 10.484375 -11.453125 C 9.710938 -10.765625 8.816406 -10.359375 7.796875 -10.234375 C 6.660156 -10.035156 5.519531 -9.910156 4.375 -9.859375 C 3.820312 -9.859375 3.429688 -9.742188 3.203125 -9.515625 C 2.984375 -9.285156 2.859375 -8.894531 2.828125 -8.34375 C 2.640625 -6.832031 3.117188 -5.601562 4.265625 -4.65625 C 4.984375 -4.082031 5.851562 -3.835938 6.875 -3.921875 C 7.894531 -4.015625 8.976562 -4.289062 10.125 -4.75 C 11.269531 -5.21875 12.390625 -5.757812 13.484375 -6.375 C 14.585938 -7 15.578125 -7.585938 16.453125 -8.140625 C 16.828125 -8.390625 17.160156 -8.59375 17.453125 -8.75 Z M 4.875 -11.96875 C 4.875 -11.945312 4.851562 -11.9375 4.8125 -11.9375 C 4.769531 -11.882812 4.707031 -11.820312 4.625 -11.75 C 4.550781 -11.6875 4.476562 -11.617188 4.40625 -11.546875 C 4.34375 -11.484375 4.3125 -11.441406 4.3125 -11.421875 C 4.332031 -11.335938 4.546875 -11.316406 4.953125 -11.359375 C 5.367188 -11.398438 5.820312 -11.472656 6.3125 -11.578125 C 6.8125 -11.679688 7.226562 -11.816406 7.5625 -11.984375 C 7.894531 -12.160156 7.992188 -12.375 7.859375 -12.625 C 7.796875 -12.695312 7.71875 -12.757812 7.625 -12.8125 C 7.539062 -12.863281 7.441406 -12.898438 7.328125 -12.921875 C 6.847656 -12.921875 6.40625 -12.828125 6 -12.640625 C 5.601562 -12.453125 5.226562 -12.226562 4.875 -11.96875 Z M 4.875 -11.96875 "/></g></g><g transform="translate(401.812232, 142.524816)"><g><path d="M 10.984375 -9.875 C 10.984375 -9.601562 10.398438 -9.113281 9.234375 -8.40625 C 8.066406 -7.695312 7.203125 -7.164062 6.640625 -6.8125 C 6.085938 -6.457031 5.8125 -6.238281 5.8125 -6.15625 C 5.914062 -5.914062 6.03125 -5.507812 6.15625 -4.9375 C 6.28125 -4.375 6.328125 -3.757812 6.296875 -3.09375 C 6.265625 -2.425781 6.046875 -1.832031 5.640625 -1.3125 C 5.242188 -0.800781 4.582031 -0.488281 3.65625 -0.375 C 2.726562 -0.300781 1.898438 -0.441406 1.171875 -0.796875 C 0.441406 -1.160156 -0.015625 -1.679688 -0.203125 -2.359375 C -0.390625 -3.035156 -0.164062 -3.820312 0.46875 -4.71875 C 0.894531 -5.226562 1.398438 -5.671875 1.984375 -6.046875 C 2.191406 -6.179688 2.40625 -6.328125 2.625 -6.484375 C 1.914062 -7.253906 1.238281 -8.039062 0.59375 -8.84375 C -0.0390625 -9.65625 -0.453125 -10.382812 -0.640625 -11.03125 C -0.828125 -11.757812 -0.703125 -12.445312 -0.265625 -13.09375 C 0.171875 -13.75 0.9375 -14.132812 2.03125 -14.25 C 2.5625 -14.300781 3.054688 -14.273438 3.515625 -14.171875 C 3.984375 -14.066406 4.414062 -13.835938 4.8125 -13.484375 C 4.894531 -13.398438 4.953125 -13.304688 4.984375 -13.203125 C 5.023438 -13.097656 5.007812 -12.96875 4.9375 -12.8125 C 4.8125 -12.570312 4.613281 -12.453125 4.34375 -12.453125 C 4.15625 -12.453125 3.96875 -12.476562 3.78125 -12.53125 C 3.59375 -12.613281 3.421875 -12.691406 3.265625 -12.765625 C 3.148438 -12.828125 3.046875 -12.878906 2.953125 -12.921875 C 2.597656 -13.054688 2.328125 -13.039062 2.140625 -12.875 C 1.953125 -12.707031 1.859375 -12.445312 1.859375 -12.09375 C 1.890625 -11.476562 2.144531 -10.820312 2.625 -10.125 C 3.101562 -9.425781 3.582031 -8.78125 4.0625 -8.1875 C 4.25 -7.976562 4.410156 -7.773438 4.546875 -7.578125 C 4.679688 -7.453125 5.03125 -7.472656 5.59375 -7.640625 C 6.15625 -7.816406 7.191406 -8.300781 8.703125 -9.09375 C 10.222656 -9.894531 10.984375 -10.15625 10.984375 -9.875 Z M 2.890625 -1.734375 C 3.242188 -1.765625 3.472656 -1.957031 3.578125 -2.3125 C 3.691406 -2.675781 3.734375 -3.070312 3.703125 -3.5 C 3.671875 -3.9375 3.644531 -4.265625 3.625 -4.484375 C 3.570312 -4.617188 3.484375 -4.703125 3.359375 -4.734375 C 3.242188 -4.773438 3.132812 -4.769531 3.03125 -4.71875 C 2.625 -4.40625 2.328125 -4.007812 2.140625 -3.53125 C 1.953125 -3.050781 1.96875 -2.628906 2.1875 -2.265625 C 2.257812 -2.128906 2.351562 -2.015625 2.46875 -1.921875 C 2.59375 -1.828125 2.734375 -1.765625 2.890625 -1.734375 Z M 2.890625 -1.734375 "/></g></g><g transform="translate(411.572126, 142.524816)"><g><path d="M 13.28125 -8.703125 C 13.945312 -9.347656 14.234375 -9.507812 14.140625 -9.1875 C 14.054688 -8.863281 13.691406 -8.28125 13.046875 -7.4375 C 12.410156 -6.601562 11.613281 -5.695312 10.65625 -4.71875 C 9.707031 -3.75 8.703125 -2.90625 7.640625 -2.1875 C 6.578125 -1.46875 5.566406 -1.078125 4.609375 -1.015625 C 3.441406 -1.015625 2.503906 -1.359375 1.796875 -2.046875 C 1.097656 -2.742188 0.597656 -3.660156 0.296875 -4.796875 C -0.00390625 -5.941406 -0.132812 -7.179688 -0.09375 -8.515625 C -0.03125 -9.992188 0.0234375 -11.476562 0.078125 -12.96875 C 0.0976562 -13.707031 0.117188 -14.4375 0.140625 -15.15625 C 0.203125 -16.351562 0.242188 -17.546875 0.265625 -18.734375 C 0.296875 -19.109375 0.238281 -19.421875 0.09375 -19.671875 C -0.0507812 -19.929688 -0.3125 -20.070312 -0.6875 -20.09375 C -1.113281 -20.113281 -1.644531 -20.125 -2.28125 -20.125 C -2.832031 -20.125 -3.3125 -20.125 -3.71875 -20.125 C -4.269531 -20.1875 -4.640625 -20.332031 -4.828125 -20.5625 C -5.015625 -20.800781 -4.863281 -21.046875 -4.375 -21.296875 C -4.039062 -21.421875 -3.632812 -21.488281 -3.15625 -21.5 C -2.675781 -21.519531 -2.207031 -21.515625 -1.75 -21.484375 C -1.46875 -21.460938 -1.21875 -21.453125 -1 -21.453125 C -0.28125 -21.453125 0.15625 -21.5625 0.3125 -21.78125 C 0.46875 -22.007812 0.5625 -22.457031 0.59375 -23.125 C 0.644531 -23.820312 0.679688 -24.523438 0.703125 -25.234375 C 0.734375 -25.609375 0.765625 -25.984375 0.796875 -26.359375 C 0.796875 -26.910156 0.941406 -27.410156 1.234375 -27.859375 C 1.546875 -28.285156 1.941406 -28.453125 2.421875 -28.359375 C 2.847656 -28.242188 3.082031 -27.976562 3.125 -27.5625 C 3.164062 -26.851562 3.1875 -26.144531 3.1875 -25.4375 C 3.207031 -25.039062 3.207031 -24.640625 3.1875 -24.234375 C 3.1875 -23.816406 3.195312 -23.378906 3.21875 -22.921875 C 3.195312 -22.296875 3.269531 -21.898438 3.4375 -21.734375 C 3.601562 -21.566406 4.019531 -21.484375 4.6875 -21.484375 C 5.769531 -21.484375 6.84375 -21.484375 7.90625 -21.484375 C 8.394531 -21.484375 9.832031 -21.515625 12.21875 -21.578125 C 14.613281 -21.648438 15.898438 -21.457031 16.078125 -21 C 16.265625 -20.550781 14.753906 -20.289062 11.546875 -20.21875 C 9.609375 -20.113281 8.109375 -20.0625 7.046875 -20.0625 C 6.328125 -20.082031 5.6875 -20.09375 5.125 -20.09375 C 4.164062 -20.09375 3.578125 -19.925781 3.359375 -19.59375 C 3.140625 -19.257812 3.039062 -18.59375 3.0625 -17.59375 C 3.039062 -16.738281 3 -15.703125 2.9375 -14.484375 C 2.78125 -11.984375 2.703125 -9.4375 2.703125 -6.84375 C 2.753906 -5.050781 3.070312 -3.890625 3.65625 -3.359375 C 4.238281 -2.835938 4.992188 -2.738281 5.921875 -3.0625 C 6.847656 -3.394531 7.851562 -3.988281 8.9375 -4.84375 C 10.019531 -5.695312 11.085938 -6.609375 12.140625 -7.578125 C 12.367188 -7.878906 12.648438 -8.164062 12.984375 -8.4375 C 13.085938 -8.53125 13.1875 -8.617188 13.28125 -8.703125 Z M 13.28125 -8.703125 "/></g></g><g transform="translate(424.627568, 142.524816)"><g><path d="M 11.546875 -8.671875 C 11.773438 -9.140625 11.929688 -9.351562 12.015625 -9.3125 C 12.097656 -9.28125 12.117188 -9.09375 12.078125 -8.75 C 12.035156 -8.40625 11.960938 -8.015625 11.859375 -7.578125 C 11.703125 -6.921875 11.429688 -6.15625 11.046875 -5.28125 C 10.660156 -4.40625 10.234375 -3.609375 9.765625 -2.890625 C 9.054688 -1.898438 8.1875 -1.15625 7.15625 -0.65625 C 6.125 -0.15625 5.1875 -0.03125 4.34375 -0.28125 C 3.507812 -0.539062 3.023438 -1.332031 2.890625 -2.65625 C 2.867188 -3.769531 2.96875 -4.988281 3.1875 -6.3125 C 3.257812 -6.875 3.335938 -7.421875 3.421875 -7.953125 C 3.421875 -8.140625 3.367188 -8.285156 3.265625 -8.390625 C 3.171875 -8.492188 3.046875 -8.535156 2.890625 -8.515625 C 2.785156 -8.515625 2.664062 -8.515625 2.53125 -8.515625 C 1.863281 -8.398438 1.1875 -8.410156 0.5 -8.546875 C -0.3125 -8.785156 -0.785156 -9.191406 -0.921875 -9.765625 C -1.054688 -10.335938 -1.046875 -11.085938 -0.890625 -12.015625 C -0.804688 -12.679688 -0.554688 -13.179688 -0.140625 -13.515625 C 0.265625 -13.847656 0.742188 -13.984375 1.296875 -13.921875 C 2.078125 -13.847656 2.453125 -13.550781 2.421875 -13.03125 C 2.398438 -12.507812 2.253906 -11.957031 1.984375 -11.375 C 1.742188 -10.875 1.617188 -10.457031 1.609375 -10.125 C 1.597656 -9.789062 1.882812 -9.675781 2.46875 -9.78125 C 2.59375 -9.8125 2.734375 -9.851562 2.890625 -9.90625 C 3.109375 -9.988281 3.359375 -10.0625 3.640625 -10.125 C 3.921875 -10.195312 4.28125 -10.210938 4.71875 -10.171875 C 5.25 -10.148438 5.601562 -9.90625 5.78125 -9.4375 C 5.957031 -8.976562 6.03125 -8.394531 6 -7.6875 C 5.976562 -6.988281 5.914062 -6.28125 5.8125 -5.5625 C 5.675781 -4.65625 5.609375 -3.878906 5.609375 -3.234375 C 5.609375 -2.585938 5.796875 -2.207031 6.171875 -2.09375 C 6.671875 -1.96875 7.410156 -2.421875 8.390625 -3.453125 C 9.367188 -4.484375 10.421875 -6.222656 11.546875 -8.671875 Z M 11.546875 -8.671875 "/></g></g><g transform="translate(435.709303, 142.524816)"><g><path d="M 13.90625 -9.90625 C 14.082031 -10.082031 14.175781 -9.859375 14.1875 -9.234375 C 14.207031 -8.617188 13.644531 -7.75 12.5 -6.625 C 11.363281 -5.507812 10.1875 -4.984375 8.96875 -5.046875 C 8.695312 -5.078125 8.46875 -5.054688 8.28125 -4.984375 C 8.09375 -4.921875 7.929688 -4.769531 7.796875 -4.53125 C 7.671875 -4.3125 7.515625 -4.109375 7.328125 -3.921875 C 7.328125 -3.921875 7.316406 -3.910156 7.296875 -3.890625 C 6.546875 -3.097656 5.664062 -2.570312 4.65625 -2.3125 C 3.65625 -2.0625 2.703125 -2.140625 1.796875 -2.546875 C 0.890625 -2.960938 0.238281 -3.742188 -0.15625 -4.890625 C -0.445312 -5.921875 -0.472656 -6.953125 -0.234375 -7.984375 C -0.0234375 -8.890625 0.304688 -9.738281 0.765625 -10.53125 C 1.316406 -11.59375 2.035156 -12.34375 2.921875 -12.78125 C 3.804688 -13.226562 4.8125 -13.476562 5.9375 -13.53125 C 7.601562 -13.613281 8.65625 -12.828125 9.09375 -11.171875 C 9.351562 -10.210938 9.414062 -9.25 9.28125 -8.28125 C 9.25 -8.0625 9.207031 -7.828125 9.15625 -7.578125 C 9.113281 -7.421875 9.070312 -7.265625 9.03125 -7.109375 C 8.988281 -6.578125 9.21875 -6.335938 9.71875 -6.390625 C 11.125 -6.628906 12.519531 -7.800781 13.90625 -9.90625 Z M 4.0625 -3.734375 C 4.914062 -4.128906 5.507812 -4.800781 5.84375 -5.75 C 4.425781 -6.65625 3.472656 -7.960938 2.984375 -9.671875 C 2.535156 -8.867188 2.265625 -7.9375 2.171875 -6.875 C 2.078125 -5.8125 2.179688 -4.929688 2.484375 -4.234375 C 2.796875 -3.546875 3.320312 -3.378906 4.0625 -3.734375 Z M 6.5 -7.640625 C 6.726562 -7.972656 6.863281 -8.382812 6.90625 -8.875 C 6.945312 -9.375 6.921875 -9.867188 6.828125 -10.359375 C 6.742188 -10.847656 6.617188 -11.234375 6.453125 -11.515625 C 6.285156 -11.796875 6.113281 -11.878906 5.9375 -11.765625 C 5.613281 -11.472656 5.429688 -11.054688 5.390625 -10.515625 C 5.359375 -9.972656 5.441406 -9.429688 5.640625 -8.890625 C 5.835938 -8.347656 6.125 -7.929688 6.5 -7.640625 Z M 6.5 -7.640625 "/></g></g><g transform="translate(449.199323, 142.524816)"><g/></g><g transform="translate(458.397887, 142.524816)"><g><path d="M 50.875 -11.421875 C 51.03125 -11.359375 51.109375 -11.226562 51.109375 -11.03125 C 51.109375 -10.832031 51.054688 -10.613281 50.953125 -10.375 C 50.859375 -10.144531 50.789062 -9.945312 50.75 -9.78125 C 49.070312 -5.851562 47.082031 -2.09375 44.78125 1.5 C 42.488281 5.09375 39.738281 8.257812 36.53125 11 C 34.832031 12.414062 33.035156 13.691406 31.140625 14.828125 C 29.253906 15.972656 27.226562 16.929688 25.0625 17.703125 C 23.6875 18.203125 22.429688 18.550781 21.296875 18.75 C 20.171875 18.945312 18.859375 19.035156 17.359375 19.015625 C 16.515625 19.035156 15.664062 19.007812 14.8125 18.9375 C 13.96875 18.875 13.109375 18.726562 12.234375 18.5 C 8.210938 17.351562 5.226562 14.910156 3.28125 11.171875 C 2.613281 9.867188 2.09375 8.546875 1.71875 7.203125 C 1.34375 5.867188 1.066406 4.523438 0.890625 3.171875 C 0.429688 -0.453125 0.410156 -4.015625 0.828125 -7.515625 C 1.398438 -12.378906 2.390625 -17.050781 3.796875 -21.53125 C 5.203125 -26.019531 6.976562 -30.332031 9.125 -34.46875 C 11.46875 -39.070312 14.347656 -43.285156 17.765625 -47.109375 C 20.128906 -49.765625 22.828125 -52.035156 25.859375 -53.921875 C 28.109375 -55.347656 30.617188 -56.285156 33.390625 -56.734375 C 34.609375 -56.953125 35.835938 -56.898438 37.078125 -56.578125 C 39.023438 -56.109375 40.265625 -54.910156 40.796875 -52.984375 C 41.160156 -51.429688 41.15625 -49.503906 40.78125 -47.203125 C 40.414062 -44.910156 39.828125 -42.515625 39.015625 -40.015625 C 38.203125 -37.515625 37.300781 -35.195312 36.3125 -33.0625 C 35.332031 -30.925781 34.4375 -29.222656 33.625 -27.953125 C 33.382812 -27.628906 33.085938 -27.429688 32.734375 -27.359375 C 32.390625 -27.296875 32.007812 -27.316406 31.59375 -27.421875 C 31.375 -27.472656 31.195312 -27.59375 31.0625 -27.78125 C 30.9375 -27.96875 30.914062 -28.140625 31 -28.296875 C 31.070312 -28.566406 31.171875 -28.820312 31.296875 -29.0625 C 31.359375 -29.1875 31.425781 -29.332031 31.5 -29.5 C 31.800781 -30.21875 32.148438 -31.007812 32.546875 -31.875 C 33.421875 -33.820312 34.328125 -35.953125 35.265625 -38.265625 C 36.210938 -40.578125 36.976562 -42.878906 37.5625 -45.171875 C 38.144531 -47.460938 38.359375 -49.539062 38.203125 -51.40625 C 37.910156 -54.539062 36.316406 -55.707031 33.421875 -54.90625 C 32.140625 -54.5625 30.945312 -54.097656 29.84375 -53.515625 C 28.75 -52.929688 27.695312 -52.28125 26.6875 -51.5625 C 24.664062 -50.101562 22.828125 -48.484375 21.171875 -46.703125 C 19.515625 -44.921875 18 -43.019531 16.625 -41 C 9.8125 -31.101562 5.628906 -19.882812 4.078125 -7.34375 C 3.617188 -3.71875 3.628906 -0.015625 4.109375 3.765625 C 4.378906 5.941406 5.015625 8.078125 6.015625 10.171875 C 7.023438 12.234375 8.226562 13.8125 9.625 14.90625 C 11.019531 16 12.46875 16.71875 13.96875 17.0625 C 15.46875 17.40625 16.882812 17.5 18.21875 17.34375 C 20.539062 17.082031 22.726562 16.472656 24.78125 15.515625 C 28.863281 13.660156 32.195312 11.679688 34.78125 9.578125 C 37.375 7.472656 39.546875 5.265625 41.296875 2.953125 C 43.054688 0.648438 44.703125 -1.765625 46.234375 -4.296875 C 46.847656 -5.296875 47.378906 -6.257812 47.828125 -7.1875 C 48.359375 -8.28125 49.054688 -9.503906 49.921875 -10.859375 C 50.203125 -11.285156 50.519531 -11.472656 50.875 -11.421875 Z M 50.875 -11.421875 "/></g></g><g transform="translate(507.124926, 142.524816)"><g><path d="M 20.484375 -9.296875 C 20.148438 -8.285156 19.488281 -7.125 18.5 -5.8125 C 17.519531 -4.507812 16.296875 -3.671875 14.828125 -3.296875 C 13.359375 -2.921875 12.082031 -2.96875 11 -3.4375 C 9.925781 -3.914062 9.335938 -5.195312 9.234375 -7.28125 C 8.015625 -4.914062 6.851562 -3.398438 5.75 -2.734375 C 4.644531 -2.066406 3.492188 -1.8125 2.296875 -1.96875 C 0.941406 -2.1875 0.03125 -2.710938 -0.4375 -3.546875 C -0.914062 -4.378906 -1.078125 -5.34375 -0.921875 -6.4375 C -0.765625 -7.53125 -0.429688 -8.578125 0.078125 -9.578125 C 0.472656 -10.328125 1.019531 -11.019531 1.71875 -11.65625 C 2.425781 -12.300781 3.171875 -12.800781 3.953125 -13.15625 C 4.898438 -13.644531 5.859375 -13.875 6.828125 -13.84375 C 7.796875 -13.820312 8.828125 -13.503906 9.921875 -12.890625 C 9.941406 -12.867188 9.953125 -12.894531 9.953125 -12.96875 C 9.953125 -13.070312 9.976562 -13.203125 10.03125 -13.359375 C 10.09375 -13.523438 10.1875 -13.660156 10.3125 -13.765625 C 10.675781 -14.023438 11.101562 -14.15625 11.59375 -14.15625 C 12.09375 -14.15625 12.476562 -13.910156 12.75 -13.421875 C 12.789062 -12.773438 12.722656 -11.957031 12.546875 -10.96875 C 12.148438 -8.800781 12.148438 -7.238281 12.546875 -6.28125 C 12.941406 -5.332031 13.644531 -4.890625 14.65625 -4.953125 C 15.664062 -5.015625 16.972656 -6.007812 18.578125 -7.9375 C 20.179688 -9.863281 20.816406 -10.316406 20.484375 -9.296875 Z M 2.65625 -4.203125 C 3.21875 -3.804688 3.859375 -3.859375 4.578125 -4.359375 C 5.296875 -4.867188 5.984375 -5.585938 6.640625 -6.515625 C 7.304688 -7.441406 7.863281 -8.367188 8.3125 -9.296875 C 8.769531 -10.234375 9.023438 -10.925781 9.078125 -11.375 C 7.722656 -12.09375 6.5625 -12.210938 5.59375 -11.734375 C 4.625 -11.265625 3.851562 -10.488281 3.28125 -9.40625 C 2.707031 -8.320312 2.363281 -7.269531 2.25 -6.25 C 2.144531 -5.226562 2.28125 -4.546875 2.65625 -4.203125 Z M 2.65625 -4.203125 "/></g></g><g transform="translate(526.31878, 142.524816)"><g><path d="M 18.953125 -6.953125 C 17.546875 -5.148438 16.234375 -3.988281 15.015625 -3.46875 C 13.796875 -2.957031 12.691406 -2.832031 11.703125 -3.09375 C 10.722656 -3.363281 9.875 -3.796875 9.15625 -4.390625 C 8.4375 -4.984375 7.90625 -5.492188 7.5625 -5.921875 C 7.4375 -6.054688 7.34375 -6.144531 7.28125 -6.1875 C 8.1875 -4.789062 8.816406 -2.960938 9.171875 -0.703125 C 9.535156 1.546875 9.53125 3.523438 9.15625 5.234375 C 8.8125 6.515625 8.132812 7.3125 7.125 7.625 C 6.113281 7.9375 5.066406 7.679688 3.984375 6.859375 C 3.347656 6.304688 2.84375 5.644531 2.46875 4.875 C 1.820312 3.625 1.34375 2.328125 1.03125 0.984375 C 0.519531 -0.960938 0.191406 -2.929688 0.046875 -4.921875 C -0.0859375 -6.910156 -0.132812 -8.914062 -0.09375 -10.9375 C 0.0195312 -13.832031 0.3125 -16.703125 0.78125 -19.546875 C 1.257812 -22.390625 1.882812 -25.21875 2.65625 -28.03125 C 3.113281 -29.832031 3.753906 -31.9375 4.578125 -34.34375 C 5.398438 -36.75 6.414062 -39.039062 7.625 -41.21875 C 8.832031 -43.394531 10.242188 -45.0625 11.859375 -46.21875 C 12.554688 -46.726562 13.328125 -47.0625 14.171875 -47.21875 C 16.347656 -47.5625 17.890625 -47.300781 18.796875 -46.4375 C 19.703125 -45.582031 20.109375 -44.289062 20.015625 -42.5625 C 19.921875 -40.832031 19.488281 -38.84375 18.71875 -36.59375 C 17.945312 -34.351562 16.96875 -32.039062 15.78125 -29.65625 C 14.601562 -27.269531 13.382812 -24.972656 12.125 -22.765625 C 10.863281 -20.566406 9.691406 -18.632812 8.609375 -16.96875 C 7.535156 -15.3125 6.710938 -14.097656 6.140625 -13.328125 C 5.972656 -13.085938 5.785156 -12.832031 5.578125 -12.5625 C 5.492188 -12.425781 5.382812 -12.28125 5.25 -12.125 C 7.132812 -9.394531 8.800781 -7.523438 10.25 -6.515625 C 11.695312 -5.503906 12.957031 -5.054688 14.03125 -5.171875 C 15.101562 -5.296875 16.019531 -5.6875 16.78125 -6.34375 C 17.539062 -7.007812 18.15625 -7.675781 18.625 -8.34375 C 19.132812 -9.007812 19.507812 -9.34375 19.75 -9.34375 C 20.125 -9.226562 20.195312 -8.9375 19.96875 -8.46875 C 19.738281 -8.007812 19.398438 -7.503906 18.953125 -6.953125 Z M 3.453125 -15.28125 C 3.347656 -14.507812 3.367188 -14.015625 3.515625 -13.796875 C 3.671875 -13.585938 4.015625 -13.859375 4.546875 -14.609375 C 5.367188 -15.742188 6.390625 -17.28125 7.609375 -19.21875 C 8.828125 -21.15625 10.097656 -23.300781 11.421875 -25.65625 C 12.753906 -28.007812 13.953125 -30.390625 15.015625 -32.796875 C 16.078125 -35.210938 16.84375 -37.472656 17.3125 -39.578125 C 17.789062 -41.679688 17.820312 -43.429688 17.40625 -44.828125 C 17.195312 -45.421875 16.828125 -45.78125 16.296875 -45.90625 C 15.765625 -46.039062 15.191406 -45.945312 14.578125 -45.625 C 13.273438 -44.882812 12.078125 -43.570312 10.984375 -41.6875 C 9.898438 -39.800781 8.925781 -37.613281 8.0625 -35.125 C 7.195312 -32.644531 6.445312 -30.109375 5.8125 -27.515625 C 5.175781 -24.929688 4.65625 -22.554688 4.25 -20.390625 C 3.851562 -18.222656 3.585938 -16.519531 3.453125 -15.28125 Z M 4.375 1.046875 C 4.851562 2.878906 5.269531 4.1875 5.625 4.96875 C 5.988281 5.757812 6.226562 5.832031 6.34375 5.1875 C 6.46875 4.550781 6.4375 3.023438 6.25 0.609375 C 6.09375 -1.242188 5.785156 -3.203125 5.328125 -5.265625 C 4.878906 -7.335938 4.269531 -9.003906 3.5 -10.265625 C 3.207031 -9.003906 3.15625 -7.265625 3.34375 -5.046875 C 3.53125 -2.835938 3.875 -0.804688 4.375 1.046875 Z M 4.375 1.046875 "/></g></g><g transform="translate(545.277238, 142.524816)"><g><path d="M 17.453125 -8.75 C 17.710938 -8.90625 17.96875 -9.023438 18.21875 -9.109375 C 18.476562 -9.191406 18.644531 -9.179688 18.71875 -9.078125 C 18.800781 -8.984375 18.695312 -8.769531 18.40625 -8.4375 C 17.5 -7.394531 16.414062 -6.441406 15.15625 -5.578125 C 13.894531 -4.722656 12.601562 -4 11.28125 -3.40625 C 10.238281 -2.9375 9.140625 -2.5625 7.984375 -2.28125 C 6.835938 -2 5.695312 -1.9375 4.5625 -2.09375 C 3.4375 -2.25 2.410156 -2.753906 1.484375 -3.609375 C 0.0664062 -4.910156 -0.515625 -6.5 -0.265625 -8.375 C -0.0664062 -9.875 0.507812 -11.144531 1.46875 -12.1875 C 2.4375 -13.238281 3.648438 -13.953125 5.109375 -14.328125 C 6.328125 -14.585938 7.546875 -14.613281 8.765625 -14.40625 C 9.316406 -14.320312 9.820312 -14.132812 10.28125 -13.84375 C 10.707031 -13.519531 10.941406 -13.140625 10.984375 -12.703125 C 11.023438 -12.273438 10.859375 -11.859375 10.484375 -11.453125 C 9.710938 -10.765625 8.816406 -10.359375 7.796875 -10.234375 C 6.660156 -10.035156 5.519531 -9.910156 4.375 -9.859375 C 3.820312 -9.859375 3.429688 -9.742188 3.203125 -9.515625 C 2.984375 -9.285156 2.859375 -8.894531 2.828125 -8.34375 C 2.640625 -6.832031 3.117188 -5.601562 4.265625 -4.65625 C 4.984375 -4.082031 5.851562 -3.835938 6.875 -3.921875 C 7.894531 -4.015625 8.976562 -4.289062 10.125 -4.75 C 11.269531 -5.21875 12.390625 -5.757812 13.484375 -6.375 C 14.585938 -7 15.578125 -7.585938 16.453125 -8.140625 C 16.828125 -8.390625 17.160156 -8.59375 17.453125 -8.75 Z M 4.875 -11.96875 C 4.875 -11.945312 4.851562 -11.9375 4.8125 -11.9375 C 4.769531 -11.882812 4.707031 -11.820312 4.625 -11.75 C 4.550781 -11.6875 4.476562 -11.617188 4.40625 -11.546875 C 4.34375 -11.484375 4.3125 -11.441406 4.3125 -11.421875 C 4.332031 -11.335938 4.546875 -11.316406 4.953125 -11.359375 C 5.367188 -11.398438 5.820312 -11.472656 6.3125 -11.578125 C 6.8125 -11.679688 7.226562 -11.816406 7.5625 -11.984375 C 7.894531 -12.160156 7.992188 -12.375 7.859375 -12.625 C 7.796875 -12.695312 7.71875 -12.757812 7.625 -12.8125 C 7.539062 -12.863281 7.441406 -12.898438 7.328125 -12.921875 C 6.847656 -12.921875 6.40625 -12.828125 6 -12.640625 C 5.601562 -12.453125 5.226562 -12.226562 4.875 -11.96875 Z M 4.875 -11.96875 "/></g></g></g></svg>